<mxfile host="Electron" modified="2024-04-18T16:14:14.494Z" agent="Mozilla/5.0 (Windows NT 10.0; Win64; x64) AppleWebKit/537.36 (KHTML, like Gecko) draw.io/24.2.5 Chrome/120.0.6099.109 Electron/28.1.0 Safari/537.36" etag="ZCt1pDv7zZjPW_5fowDG" version="24.2.5" type="device">
  <diagram name="Página-1" id="AJHkX2MPg1d7TfozDNga">
    <mxGraphModel dx="1773" dy="2194" grid="1" gridSize="10" guides="1" tooltips="1" connect="1" arrows="1" fold="1" page="1" pageScale="1" pageWidth="827" pageHeight="1169" math="0" shadow="0">
      <root>
        <mxCell id="0" />
        <mxCell id="1" parent="0" />
        <mxCell id="Gzy3aqfIAVTDYlIWchF0-92" value="" style="points=[[0.145,0.145,0],[0.5,0,0],[0.855,0.145,0],[1,0.5,0],[0.855,0.855,0],[0.5,1,0],[0.145,0.855,0],[0,0.5,0]];shape=mxgraph.bpmn.event;html=1;verticalLabelPosition=bottom;labelBackgroundColor=#ffffff;verticalAlign=top;align=center;perimeter=ellipsePerimeter;outlineConnect=0;aspect=fixed;outline=standard;symbol=general;" parent="1" vertex="1">
          <mxGeometry x="290" y="275" width="50" height="50" as="geometry" />
        </mxCell>
        <mxCell id="Gzy3aqfIAVTDYlIWchF0-93" value="Ingresa a la aplicación de comercio" style="points=[[0.25,0,0],[0.5,0,0],[0.75,0,0],[1,0.25,0],[1,0.5,0],[1,0.75,0],[0.75,1,0],[0.5,1,0],[0.25,1,0],[0,0.75,0],[0,0.5,0],[0,0.25,0]];shape=mxgraph.bpmn.task;whiteSpace=wrap;rectStyle=rounded;size=10;html=1;container=1;expand=0;collapsible=0;taskMarker=abstract;" parent="1" vertex="1">
          <mxGeometry x="441" y="260" width="120" height="80" as="geometry" />
        </mxCell>
        <mxCell id="Gzy3aqfIAVTDYlIWchF0-94" style="edgeStyle=orthogonalEdgeStyle;rounded=0;orthogonalLoop=1;jettySize=auto;html=1;exitX=1;exitY=0.5;exitDx=0;exitDy=0;exitPerimeter=0;entryX=0;entryY=0.5;entryDx=0;entryDy=0;entryPerimeter=0;" parent="1" source="Gzy3aqfIAVTDYlIWchF0-92" target="Gzy3aqfIAVTDYlIWchF0-93" edge="1">
          <mxGeometry relative="1" as="geometry" />
        </mxCell>
        <mxCell id="Gzy3aqfIAVTDYlIWchF0-95" value="Selecciona productos que desea adquirir" style="points=[[0.25,0,0],[0.5,0,0],[0.75,0,0],[1,0.25,0],[1,0.5,0],[1,0.75,0],[0.75,1,0],[0.5,1,0],[0.25,1,0],[0,0.75,0],[0,0.5,0],[0,0.25,0]];shape=mxgraph.bpmn.task;whiteSpace=wrap;rectStyle=rounded;size=10;html=1;container=1;expand=0;collapsible=0;taskMarker=abstract;" parent="1" vertex="1">
          <mxGeometry x="790" y="260" width="120" height="80" as="geometry" />
        </mxCell>
        <mxCell id="Gzy3aqfIAVTDYlIWchF0-96" value="Ingresa datos de contacto y domicilio" style="points=[[0.25,0,0],[0.5,0,0],[0.75,0,0],[1,0.25,0],[1,0.5,0],[1,0.75,0],[0.75,1,0],[0.5,1,0],[0.25,1,0],[0,0.75,0],[0,0.5,0],[0,0.25,0]];shape=mxgraph.bpmn.task;whiteSpace=wrap;rectStyle=rounded;size=10;html=1;container=1;expand=0;collapsible=0;taskMarker=abstract;" parent="1" vertex="1">
          <mxGeometry x="1270" y="258" width="120" height="80" as="geometry" />
        </mxCell>
        <mxCell id="Gzy3aqfIAVTDYlIWchF0-97" value="" style="points=[[0.25,0.25,0],[0.5,0,0],[0.75,0.25,0],[1,0.5,0],[0.75,0.75,0],[0.5,1,0],[0.25,0.75,0],[0,0.5,0]];shape=mxgraph.bpmn.gateway2;html=1;verticalLabelPosition=bottom;labelBackgroundColor=#ffffff;verticalAlign=top;align=center;perimeter=rhombusPerimeter;outlineConnect=0;outline=none;symbol=none;gwType=parallel;" parent="1" vertex="1">
          <mxGeometry x="656" y="275" width="50" height="50" as="geometry" />
        </mxCell>
        <mxCell id="Gzy3aqfIAVTDYlIWchF0-98" style="edgeStyle=orthogonalEdgeStyle;rounded=0;orthogonalLoop=1;jettySize=auto;html=1;entryX=0;entryY=0.5;entryDx=0;entryDy=0;entryPerimeter=0;" parent="1" source="Gzy3aqfIAVTDYlIWchF0-93" target="Gzy3aqfIAVTDYlIWchF0-97" edge="1">
          <mxGeometry relative="1" as="geometry" />
        </mxCell>
        <mxCell id="Gzy3aqfIAVTDYlIWchF0-99" style="edgeStyle=orthogonalEdgeStyle;rounded=0;orthogonalLoop=1;jettySize=auto;html=1;exitX=1;exitY=0.5;exitDx=0;exitDy=0;exitPerimeter=0;entryX=0;entryY=0.5;entryDx=0;entryDy=0;entryPerimeter=0;" parent="1" source="Gzy3aqfIAVTDYlIWchF0-97" target="Gzy3aqfIAVTDYlIWchF0-95" edge="1">
          <mxGeometry relative="1" as="geometry" />
        </mxCell>
        <mxCell id="Gzy3aqfIAVTDYlIWchF0-100" value="Finaliza compra" style="points=[[0.25,0,0],[0.5,0,0],[0.75,0,0],[1,0.25,0],[1,0.5,0],[1,0.75,0],[0.75,1,0],[0.5,1,0],[0.25,1,0],[0,0.75,0],[0,0.5,0],[0,0.25,0]];shape=mxgraph.bpmn.task;whiteSpace=wrap;rectStyle=rounded;size=10;html=1;container=1;expand=0;collapsible=0;taskMarker=abstract;" parent="1" vertex="1">
          <mxGeometry x="1470" y="260" width="120" height="80" as="geometry" />
        </mxCell>
        <mxCell id="Gzy3aqfIAVTDYlIWchF0-103" value="Solicita el método de pago" style="points=[[0.25,0,0],[0.5,0,0],[0.75,0,0],[1,0.25,0],[1,0.5,0],[1,0.75,0],[0.75,1,0],[0.5,1,0],[0.25,1,0],[0,0.75,0],[0,0.5,0],[0,0.25,0]];shape=mxgraph.bpmn.task;whiteSpace=wrap;rectStyle=rounded;size=10;html=1;container=1;expand=0;collapsible=0;taskMarker=abstract;" parent="1" vertex="1">
          <mxGeometry x="1670" y="717" width="120" height="80" as="geometry" />
        </mxCell>
        <mxCell id="Gzy3aqfIAVTDYlIWchF0-104" value="" style="points=[[0.25,0.25,0],[0.5,0,0],[0.75,0.25,0],[1,0.5,0],[0.75,0.75,0],[0.5,1,0],[0.25,0.75,0],[0,0.5,0]];shape=mxgraph.bpmn.gateway2;html=1;verticalLabelPosition=bottom;labelBackgroundColor=#ffffff;verticalAlign=top;align=center;perimeter=rhombusPerimeter;outlineConnect=0;outline=none;symbol=none;gwType=exclusive;" parent="1" vertex="1">
          <mxGeometry x="825" y="733" width="50" height="50" as="geometry" />
        </mxCell>
        <mxCell id="Gzy3aqfIAVTDYlIWchF0-105" value="&lt;font style=&quot;font-size: 10px;&quot;&gt;¿El Cliente tiene productos seleccionados?&lt;/font&gt;" style="text;html=1;align=center;verticalAlign=middle;resizable=0;points=[];autosize=1;strokeColor=none;fillColor=none;" parent="1" vertex="1">
          <mxGeometry x="740" y="788" width="220" height="30" as="geometry" />
        </mxCell>
        <mxCell id="Gzy3aqfIAVTDYlIWchF0-107" style="edgeStyle=orthogonalEdgeStyle;rounded=0;orthogonalLoop=1;jettySize=auto;html=1;exitX=1;exitY=0.5;exitDx=0;exitDy=0;exitPerimeter=0;entryX=0;entryY=0.5;entryDx=0;entryDy=0;entryPerimeter=0;" parent="1" source="Gzy3aqfIAVTDYlIWchF0-104" target="Gzy3aqfIAVTDYlIWchF0-120" edge="1">
          <mxGeometry relative="1" as="geometry">
            <mxPoint x="977" y="575" as="targetPoint" />
          </mxGeometry>
        </mxCell>
        <mxCell id="Gzy3aqfIAVTDYlIWchF0-108" value="Si" style="edgeLabel;html=1;align=center;verticalAlign=middle;resizable=0;points=[];" parent="Gzy3aqfIAVTDYlIWchF0-107" vertex="1" connectable="0">
          <mxGeometry x="-0.0467" y="1" relative="1" as="geometry">
            <mxPoint as="offset" />
          </mxGeometry>
        </mxCell>
        <mxCell id="Gzy3aqfIAVTDYlIWchF0-109" value="Mostrar opción &quot;Finalizar la compra&quot;" style="points=[[0.25,0,0],[0.5,0,0],[0.75,0,0],[1,0.25,0],[1,0.5,0],[1,0.75,0],[0.75,1,0],[0.5,1,0],[0.25,1,0],[0,0.75,0],[0,0.5,0],[0,0.25,0]];shape=mxgraph.bpmn.task;whiteSpace=wrap;rectStyle=rounded;size=10;html=1;container=1;expand=0;collapsible=0;taskMarker=abstract;" parent="1" vertex="1">
          <mxGeometry x="1470" y="721" width="120" height="80" as="geometry" />
        </mxCell>
        <mxCell id="Gzy3aqfIAVTDYlIWchF0-113" style="edgeStyle=orthogonalEdgeStyle;rounded=0;orthogonalLoop=1;jettySize=auto;html=1;" parent="1" source="Gzy3aqfIAVTDYlIWchF0-95" target="Gzy3aqfIAVTDYlIWchF0-104" edge="1">
          <mxGeometry relative="1" as="geometry" />
        </mxCell>
        <mxCell id="Gzy3aqfIAVTDYlIWchF0-116" style="edgeStyle=orthogonalEdgeStyle;rounded=0;orthogonalLoop=1;jettySize=auto;html=1;" parent="1" source="Gzy3aqfIAVTDYlIWchF0-109" target="Gzy3aqfIAVTDYlIWchF0-100" edge="1">
          <mxGeometry relative="1" as="geometry" />
        </mxCell>
        <mxCell id="Gzy3aqfIAVTDYlIWchF0-117" style="edgeStyle=orthogonalEdgeStyle;rounded=0;orthogonalLoop=1;jettySize=auto;html=1;entryX=0.5;entryY=0;entryDx=0;entryDy=0;entryPerimeter=0;" parent="1" source="Gzy3aqfIAVTDYlIWchF0-100" target="Gzy3aqfIAVTDYlIWchF0-103" edge="1">
          <mxGeometry relative="1" as="geometry" />
        </mxCell>
        <mxCell id="Gzy3aqfIAVTDYlIWchF0-119" value="Inicio" style="text;html=1;align=center;verticalAlign=middle;resizable=0;points=[];autosize=1;strokeColor=none;fillColor=none;" parent="1" vertex="1">
          <mxGeometry x="289" y="328" width="50" height="30" as="geometry" />
        </mxCell>
        <mxCell id="Gzy3aqfIAVTDYlIWchF0-120" value="" style="points=[[0.25,0.25,0],[0.5,0,0],[0.75,0.25,0],[1,0.5,0],[0.75,0.75,0],[0.5,1,0],[0.25,0.75,0],[0,0.5,0]];shape=mxgraph.bpmn.gateway2;html=1;verticalLabelPosition=bottom;labelBackgroundColor=#ffffff;verticalAlign=top;align=center;perimeter=rhombusPerimeter;outlineConnect=0;outline=none;symbol=none;gwType=parallel;" parent="1" vertex="1">
          <mxGeometry x="1140" y="273" width="50" height="50" as="geometry" />
        </mxCell>
        <mxCell id="Gzy3aqfIAVTDYlIWchF0-121" style="edgeStyle=orthogonalEdgeStyle;rounded=0;orthogonalLoop=1;jettySize=auto;html=1;exitX=1;exitY=0.5;exitDx=0;exitDy=0;exitPerimeter=0;" parent="1" source="Gzy3aqfIAVTDYlIWchF0-120" target="Gzy3aqfIAVTDYlIWchF0-96" edge="1">
          <mxGeometry relative="1" as="geometry" />
        </mxCell>
        <mxCell id="Gzy3aqfIAVTDYlIWchF0-123" style="edgeStyle=orthogonalEdgeStyle;rounded=0;orthogonalLoop=1;jettySize=auto;html=1;entryX=0.5;entryY=0;entryDx=0;entryDy=0;entryPerimeter=0;" parent="1" source="Gzy3aqfIAVTDYlIWchF0-96" target="Gzy3aqfIAVTDYlIWchF0-122" edge="1">
          <mxGeometry relative="1" as="geometry" />
        </mxCell>
        <mxCell id="Gzy3aqfIAVTDYlIWchF0-124" value="&lt;font style=&quot;font-size: 10px;&quot;&gt;¿Cliente ingreso datos de&amp;nbsp;&lt;/font&gt;&lt;div style=&quot;font-size: 10px;&quot;&gt;&lt;font style=&quot;font-size: 10px;&quot;&gt;contacto y domicilio?&lt;/font&gt;&lt;/div&gt;" style="text;html=1;align=center;verticalAlign=middle;resizable=0;points=[];autosize=1;strokeColor=none;fillColor=none;" parent="1" vertex="1">
          <mxGeometry x="1259" y="773" width="140" height="40" as="geometry" />
        </mxCell>
        <mxCell id="Gzy3aqfIAVTDYlIWchF0-125" style="edgeStyle=orthogonalEdgeStyle;rounded=0;orthogonalLoop=1;jettySize=auto;html=1;entryX=0.5;entryY=1;entryDx=0;entryDy=0;entryPerimeter=0;fillColor=#f8cecc;strokeColor=#b85450;" parent="1" source="Gzy3aqfIAVTDYlIWchF0-122" target="Gzy3aqfIAVTDYlIWchF0-120" edge="1">
          <mxGeometry relative="1" as="geometry" />
        </mxCell>
        <mxCell id="Gzy3aqfIAVTDYlIWchF0-126" value="No" style="edgeLabel;html=1;align=center;verticalAlign=middle;resizable=0;points=[];" parent="Gzy3aqfIAVTDYlIWchF0-125" vertex="1" connectable="0">
          <mxGeometry x="-0.6655" y="-1" relative="1" as="geometry">
            <mxPoint as="offset" />
          </mxGeometry>
        </mxCell>
        <mxCell id="Gzy3aqfIAVTDYlIWchF0-127" style="edgeStyle=orthogonalEdgeStyle;rounded=0;orthogonalLoop=1;jettySize=auto;html=1;entryX=0;entryY=0.5;entryDx=0;entryDy=0;entryPerimeter=0;" parent="1" source="Gzy3aqfIAVTDYlIWchF0-122" target="Gzy3aqfIAVTDYlIWchF0-109" edge="1">
          <mxGeometry relative="1" as="geometry" />
        </mxCell>
        <mxCell id="Gzy3aqfIAVTDYlIWchF0-128" value="Si" style="edgeLabel;html=1;align=center;verticalAlign=middle;resizable=0;points=[];" parent="Gzy3aqfIAVTDYlIWchF0-127" vertex="1" connectable="0">
          <mxGeometry x="-0.8056" y="1" relative="1" as="geometry">
            <mxPoint x="40" as="offset" />
          </mxGeometry>
        </mxCell>
        <mxCell id="Gzy3aqfIAVTDYlIWchF0-207" style="edgeStyle=orthogonalEdgeStyle;rounded=0;orthogonalLoop=1;jettySize=auto;html=1;" parent="1" source="Gzy3aqfIAVTDYlIWchF0-206" target="Gzy3aqfIAVTDYlIWchF0-97" edge="1">
          <mxGeometry relative="1" as="geometry" />
        </mxCell>
        <mxCell id="Gzy3aqfIAVTDYlIWchF0-206" value="" style="points=[[0.25,0.25,0],[0.5,0,0],[0.75,0.25,0],[1,0.5,0],[0.75,0.75,0],[0.5,1,0],[0.25,0.75,0],[0,0.5,0]];shape=mxgraph.bpmn.gateway2;html=1;verticalLabelPosition=bottom;labelBackgroundColor=#ffffff;verticalAlign=top;align=center;perimeter=rhombusPerimeter;outlineConnect=0;outline=none;symbol=none;gwType=parallel;" parent="1" vertex="1">
          <mxGeometry x="656" y="733" width="50" height="50" as="geometry" />
        </mxCell>
        <mxCell id="Gzy3aqfIAVTDYlIWchF0-208" style="edgeStyle=orthogonalEdgeStyle;rounded=0;orthogonalLoop=1;jettySize=auto;html=1;entryX=1;entryY=0.5;entryDx=0;entryDy=0;entryPerimeter=0;fillColor=#e51400;strokeColor=#B20000;" parent="1" source="Gzy3aqfIAVTDYlIWchF0-104" target="Gzy3aqfIAVTDYlIWchF0-206" edge="1">
          <mxGeometry relative="1" as="geometry" />
        </mxCell>
        <mxCell id="Gzy3aqfIAVTDYlIWchF0-209" value="No" style="edgeLabel;html=1;align=center;verticalAlign=middle;resizable=0;points=[];" parent="Gzy3aqfIAVTDYlIWchF0-208" vertex="1" connectable="0">
          <mxGeometry x="-0.1729" relative="1" as="geometry">
            <mxPoint as="offset" />
          </mxGeometry>
        </mxCell>
        <mxCell id="Gzy3aqfIAVTDYlIWchF0-248" value="" style="swimlane;startSize=20;horizontal=0;html=1;whiteSpace=wrap;movable=1;resizable=1;rotatable=1;deletable=1;editable=1;locked=0;connectable=1;" parent="1" vertex="1">
          <mxGeometry x="10" y="490" width="4785" height="790" as="geometry" />
        </mxCell>
        <mxCell id="Gzy3aqfIAVTDYlIWchF0-174" value="Muestra opción de meses sin intereses" style="points=[[0.25,0,0],[0.5,0,0],[0.75,0,0],[1,0.25,0],[1,0.5,0],[1,0.75,0],[0.75,1,0],[0.5,1,0],[0.25,1,0],[0,0.75,0],[0,0.5,0],[0,0.25,0]];shape=mxgraph.bpmn.task;whiteSpace=wrap;rectStyle=rounded;size=10;html=1;container=1;expand=0;collapsible=0;taskMarker=abstract;movable=1;resizable=1;rotatable=1;deletable=1;editable=1;locked=0;connectable=1;" parent="Gzy3aqfIAVTDYlIWchF0-248" vertex="1">
          <mxGeometry x="2684" y="253" width="120" height="80" as="geometry" />
        </mxCell>
        <mxCell id="645c-EQ36qVEh3R8y48j-9" value="" style="edgeStyle=orthogonalEdgeStyle;rounded=0;orthogonalLoop=1;jettySize=auto;html=1;" parent="Gzy3aqfIAVTDYlIWchF0-248" target="VDWaJJk8PZqv5Mdo3ZJA-20" edge="1">
          <mxGeometry relative="1" as="geometry">
            <mxPoint x="3124" y="278" as="sourcePoint" />
          </mxGeometry>
        </mxCell>
        <mxCell id="VDWaJJk8PZqv5Mdo3ZJA-20" value="Valida Datos de tarjeta" style="points=[[0.25,0,0],[0.5,0,0],[0.75,0,0],[1,0.25,0],[1,0.5,0],[1,0.75,0],[0.75,1,0],[0.5,1,0],[0.25,1,0],[0,0.75,0],[0,0.5,0],[0,0.25,0]];shape=mxgraph.bpmn.task;whiteSpace=wrap;rectStyle=rounded;size=10;html=1;container=1;expand=0;collapsible=0;taskMarker=abstract;" parent="Gzy3aqfIAVTDYlIWchF0-248" vertex="1">
          <mxGeometry x="2904" y="238" width="120" height="80" as="geometry" />
        </mxCell>
        <mxCell id="VDWaJJk8PZqv5Mdo3ZJA-24" style="edgeStyle=orthogonalEdgeStyle;rounded=0;orthogonalLoop=1;jettySize=auto;html=1;entryX=0.5;entryY=0;entryDx=0;entryDy=0;entryPerimeter=0;exitX=0.5;exitY=1;exitDx=0;exitDy=0;exitPerimeter=0;" parent="Gzy3aqfIAVTDYlIWchF0-248" source="VDWaJJk8PZqv5Mdo3ZJA-20" target="VDWaJJk8PZqv5Mdo3ZJA-22" edge="1">
          <mxGeometry relative="1" as="geometry" />
        </mxCell>
        <mxCell id="Gzy3aqfIAVTDYlIWchF0-122" value="" style="points=[[0.25,0.25,0],[0.5,0,0],[0.75,0.25,0],[1,0.5,0],[0.75,0.75,0],[0.5,1,0],[0.25,0.75,0],[0,0.5,0]];shape=mxgraph.bpmn.gateway2;html=1;verticalLabelPosition=bottom;labelBackgroundColor=#ffffff;verticalAlign=top;align=center;perimeter=rhombusPerimeter;outlineConnect=0;outline=none;symbol=none;gwType=exclusive;" parent="Gzy3aqfIAVTDYlIWchF0-248" vertex="1">
          <mxGeometry x="1295" y="247" width="50" height="50" as="geometry" />
        </mxCell>
        <mxCell id="VDWaJJk8PZqv5Mdo3ZJA-29" style="edgeStyle=orthogonalEdgeStyle;rounded=0;orthogonalLoop=1;jettySize=auto;html=1;entryX=0.5;entryY=0;entryDx=0;entryDy=0;entryPerimeter=0;exitX=0.5;exitY=1;exitDx=0;exitDy=0;exitPerimeter=0;strokeColor=#EC0000;" parent="Gzy3aqfIAVTDYlIWchF0-248" target="VDWaJJk8PZqv5Mdo3ZJA-39" edge="1">
          <mxGeometry relative="1" as="geometry">
            <mxPoint x="2964" y="563" as="targetPoint" />
            <mxPoint x="2964" y="413" as="sourcePoint" />
          </mxGeometry>
        </mxCell>
        <mxCell id="VDWaJJk8PZqv5Mdo3ZJA-33" value="NO" style="edgeLabel;html=1;align=center;verticalAlign=middle;resizable=0;points=[];" parent="VDWaJJk8PZqv5Mdo3ZJA-29" vertex="1" connectable="0">
          <mxGeometry x="0.1194" y="3" relative="1" as="geometry">
            <mxPoint as="offset" />
          </mxGeometry>
        </mxCell>
        <mxCell id="VDWaJJk8PZqv5Mdo3ZJA-22" value="" style="points=[[0.25,0.25,0],[0.5,0,0],[0.75,0.25,0],[1,0.5,0],[0.75,0.75,0],[0.5,1,0],[0.25,0.75,0],[0,0.5,0]];shape=mxgraph.bpmn.gateway2;html=1;verticalLabelPosition=bottom;labelBackgroundColor=#ffffff;verticalAlign=top;align=center;perimeter=rhombusPerimeter;outlineConnect=0;outline=none;symbol=none;gwType=exclusive;" parent="Gzy3aqfIAVTDYlIWchF0-248" vertex="1">
          <mxGeometry x="2939" y="373" width="50" height="50" as="geometry" />
        </mxCell>
        <mxCell id="VDWaJJk8PZqv5Mdo3ZJA-23" value="¿Los Datos de la tarjeta&lt;div&gt;&amp;nbsp;son correctos?&lt;/div&gt;" style="text;html=1;align=center;verticalAlign=middle;resizable=0;points=[];autosize=1;strokeColor=none;fillColor=none;" parent="Gzy3aqfIAVTDYlIWchF0-248" vertex="1">
          <mxGeometry x="2785" y="378" width="150" height="40" as="geometry" />
        </mxCell>
        <mxCell id="VDWaJJk8PZqv5Mdo3ZJA-30" value="Alertar al Usuario de datos incorrectos y solicitar ingresar los datos nuevamente" style="points=[[0.25,0,0],[0.5,0,0],[0.75,0,0],[1,0.25,0],[1,0.5,0],[1,0.75,0],[0.75,1,0],[0.5,1,0],[0.25,1,0],[0,0.75,0],[0,0.5,0],[0,0.25,0]];shape=mxgraph.bpmn.task;whiteSpace=wrap;rectStyle=rounded;size=10;html=1;container=1;expand=0;collapsible=0;taskMarker=abstract;" parent="Gzy3aqfIAVTDYlIWchF0-248" vertex="1">
          <mxGeometry x="1973" y="483" width="120" height="80" as="geometry" />
        </mxCell>
        <mxCell id="VDWaJJk8PZqv5Mdo3ZJA-39" value="" style="points=[[0.25,0.25,0],[0.5,0,0],[0.75,0.25,0],[1,0.5,0],[0.75,0.75,0],[0.5,1,0],[0.25,0.75,0],[0,0.5,0]];shape=mxgraph.bpmn.gateway2;html=1;verticalLabelPosition=bottom;labelBackgroundColor=#ffffff;verticalAlign=top;align=center;perimeter=rhombusPerimeter;outlineConnect=0;outline=none;symbol=none;gwType=exclusive;" parent="Gzy3aqfIAVTDYlIWchF0-248" vertex="1">
          <mxGeometry x="2939" y="498" width="50" height="50" as="geometry" />
        </mxCell>
        <mxCell id="VDWaJJk8PZqv5Mdo3ZJA-40" style="edgeStyle=orthogonalEdgeStyle;rounded=0;orthogonalLoop=1;jettySize=auto;html=1;entryX=1;entryY=0.5;entryDx=0;entryDy=0;entryPerimeter=0;" parent="Gzy3aqfIAVTDYlIWchF0-248" source="VDWaJJk8PZqv5Mdo3ZJA-39" target="VDWaJJk8PZqv5Mdo3ZJA-30" edge="1">
          <mxGeometry relative="1" as="geometry" />
        </mxCell>
        <mxCell id="VDWaJJk8PZqv5Mdo3ZJA-75" value="SI" style="edgeLabel;html=1;align=center;verticalAlign=middle;resizable=0;points=[];" parent="VDWaJJk8PZqv5Mdo3ZJA-40" vertex="1" connectable="0">
          <mxGeometry x="0.022" relative="1" as="geometry">
            <mxPoint x="1" as="offset" />
          </mxGeometry>
        </mxCell>
        <mxCell id="VDWaJJk8PZqv5Mdo3ZJA-42" value="" style="edgeStyle=orthogonalEdgeStyle;rounded=0;orthogonalLoop=1;jettySize=auto;html=1;strokeColor=#EC0000;" parent="Gzy3aqfIAVTDYlIWchF0-248" source="VDWaJJk8PZqv5Mdo3ZJA-39" edge="1">
          <mxGeometry relative="1" as="geometry">
            <mxPoint x="2964" y="633.0000000000005" as="targetPoint" />
            <mxPoint x="3004" y="1018" as="sourcePoint" />
          </mxGeometry>
        </mxCell>
        <mxCell id="VDWaJJk8PZqv5Mdo3ZJA-50" value="NO" style="edgeLabel;html=1;align=center;verticalAlign=middle;resizable=0;points=[];" parent="VDWaJJk8PZqv5Mdo3ZJA-42" vertex="1" connectable="0">
          <mxGeometry x="-0.0613" y="1" relative="1" as="geometry">
            <mxPoint as="offset" />
          </mxGeometry>
        </mxCell>
        <mxCell id="VDWaJJk8PZqv5Mdo3ZJA-44" value="Operación&lt;div&gt;Bloqueada&lt;/div&gt;" style="text;html=1;align=center;verticalAlign=middle;resizable=0;points=[];autosize=1;strokeColor=none;fillColor=none;" parent="Gzy3aqfIAVTDYlIWchF0-248" vertex="1">
          <mxGeometry x="2924" y="660" width="80" height="40" as="geometry" />
        </mxCell>
        <mxCell id="VDWaJJk8PZqv5Mdo3ZJA-45" value="Tiene &amp;gt;3 intentos" style="text;html=1;align=center;verticalAlign=middle;resizable=0;points=[];autosize=1;strokeColor=none;fillColor=none;" parent="Gzy3aqfIAVTDYlIWchF0-248" vertex="1">
          <mxGeometry x="2989" y="501" width="120" height="30" as="geometry" />
        </mxCell>
        <mxCell id="VDWaJJk8PZqv5Mdo3ZJA-74" style="edgeStyle=orthogonalEdgeStyle;rounded=0;orthogonalLoop=1;jettySize=auto;html=1;entryX=0;entryY=0.5;entryDx=0;entryDy=0;entryPerimeter=0;exitX=1;exitY=0.5;exitDx=0;exitDy=0;exitPerimeter=0;" parent="Gzy3aqfIAVTDYlIWchF0-248" source="VDWaJJk8PZqv5Mdo3ZJA-148" target="Gzy3aqfIAVTDYlIWchF0-174" edge="1">
          <mxGeometry relative="1" as="geometry">
            <mxPoint x="2260" y="293" as="sourcePoint" />
          </mxGeometry>
        </mxCell>
        <mxCell id="VDWaJJk8PZqv5Mdo3ZJA-153" value="SI" style="edgeLabel;html=1;align=center;verticalAlign=middle;resizable=0;points=[];" parent="VDWaJJk8PZqv5Mdo3ZJA-74" vertex="1" connectable="0">
          <mxGeometry x="-0.1122" y="1" relative="1" as="geometry">
            <mxPoint as="offset" />
          </mxGeometry>
        </mxCell>
        <mxCell id="VDWaJJk8PZqv5Mdo3ZJA-139" value="" style="points=[[0.25,0.25,0],[0.5,0,0],[0.75,0.25,0],[1,0.5,0],[0.75,0.75,0],[0.5,1,0],[0.25,0.75,0],[0,0.5,0]];shape=mxgraph.bpmn.gateway2;html=1;verticalLabelPosition=bottom;labelBackgroundColor=#ffffff;verticalAlign=top;align=center;perimeter=rhombusPerimeter;outlineConnect=0;outline=none;symbol=none;gwType=exclusive;" parent="Gzy3aqfIAVTDYlIWchF0-248" vertex="1">
          <mxGeometry x="2180" y="268" width="50" height="50" as="geometry" />
        </mxCell>
        <mxCell id="VDWaJJk8PZqv5Mdo3ZJA-142" value="" style="edgeStyle=orthogonalEdgeStyle;rounded=0;orthogonalLoop=1;jettySize=auto;html=1;strokeColor=#FF0000;" parent="Gzy3aqfIAVTDYlIWchF0-248" source="VDWaJJk8PZqv5Mdo3ZJA-139" edge="1">
          <mxGeometry relative="1" as="geometry">
            <mxPoint x="2205" y="393.00000000000045" as="targetPoint" />
          </mxGeometry>
        </mxCell>
        <mxCell id="VDWaJJk8PZqv5Mdo3ZJA-143" value="NO" style="edgeLabel;html=1;align=center;verticalAlign=middle;resizable=0;points=[];" parent="VDWaJJk8PZqv5Mdo3ZJA-142" vertex="1" connectable="0">
          <mxGeometry x="-0.5692" y="5" relative="1" as="geometry">
            <mxPoint y="1" as="offset" />
          </mxGeometry>
        </mxCell>
        <mxCell id="VDWaJJk8PZqv5Mdo3ZJA-144" value="Fin de&amp;nbsp;&lt;div&gt;Operación&lt;/div&gt;" style="text;html=1;align=center;verticalAlign=middle;resizable=0;points=[];autosize=1;strokeColor=none;fillColor=none;" parent="Gzy3aqfIAVTDYlIWchF0-248" vertex="1">
          <mxGeometry x="2165" y="423" width="80" height="40" as="geometry" />
        </mxCell>
        <mxCell id="VDWaJJk8PZqv5Mdo3ZJA-148" value="" style="points=[[0.25,0.25,0],[0.5,0,0],[0.75,0.25,0],[1,0.5,0],[0.75,0.75,0],[0.5,1,0],[0.25,0.75,0],[0,0.5,0]];shape=mxgraph.bpmn.gateway2;html=1;verticalLabelPosition=bottom;labelBackgroundColor=#ffffff;verticalAlign=top;align=center;perimeter=rhombusPerimeter;outlineConnect=0;outline=none;symbol=none;gwType=exclusive;" parent="Gzy3aqfIAVTDYlIWchF0-248" vertex="1">
          <mxGeometry x="2320" y="268" width="50" height="50" as="geometry" />
        </mxCell>
        <mxCell id="VDWaJJk8PZqv5Mdo3ZJA-151" value="" style="edgeStyle=orthogonalEdgeStyle;rounded=0;orthogonalLoop=1;jettySize=auto;html=1;entryX=0;entryY=0.5;entryDx=0;entryDy=0;entryPerimeter=0;exitX=1;exitY=0.5;exitDx=0;exitDy=0;exitPerimeter=0;" parent="Gzy3aqfIAVTDYlIWchF0-248" source="VDWaJJk8PZqv5Mdo3ZJA-139" target="VDWaJJk8PZqv5Mdo3ZJA-148" edge="1">
          <mxGeometry relative="1" as="geometry">
            <mxPoint x="2240" y="783" as="sourcePoint" />
            <mxPoint x="2492" y="783" as="targetPoint" />
          </mxGeometry>
        </mxCell>
        <mxCell id="VDWaJJk8PZqv5Mdo3ZJA-152" value="SI" style="edgeLabel;html=1;align=center;verticalAlign=middle;resizable=0;points=[];" parent="VDWaJJk8PZqv5Mdo3ZJA-151" vertex="1" connectable="0">
          <mxGeometry x="-0.2182" y="-2" relative="1" as="geometry">
            <mxPoint as="offset" />
          </mxGeometry>
        </mxCell>
        <mxCell id="VDWaJJk8PZqv5Mdo3ZJA-154" value="¿La tarjeta esta&lt;div&gt;disponible?&lt;/div&gt;" style="text;html=1;align=center;verticalAlign=middle;resizable=0;points=[];autosize=1;" parent="Gzy3aqfIAVTDYlIWchF0-248" vertex="1">
          <mxGeometry x="2150" y="213" width="110" height="40" as="geometry" />
        </mxCell>
        <mxCell id="VDWaJJk8PZqv5Mdo3ZJA-155" value="¿El metodo&amp;nbsp;&lt;div&gt;de pago es TDC&lt;span style=&quot;background-color: initial;&quot;&gt;?&lt;/span&gt;&lt;/div&gt;" style="text;html=1;align=center;verticalAlign=middle;resizable=0;points=[];autosize=1;strokeColor=none;fillColor=none;" parent="Gzy3aqfIAVTDYlIWchF0-248" vertex="1">
          <mxGeometry x="2285" y="333" width="120" height="40" as="geometry" />
        </mxCell>
        <mxCell id="VDWaJJk8PZqv5Mdo3ZJA-157" style="edgeStyle=orthogonalEdgeStyle;rounded=0;orthogonalLoop=1;jettySize=auto;html=1;entryX=0.5;entryY=1;entryDx=0;entryDy=0;entryPerimeter=0;strokeColor=#FF0000;" parent="Gzy3aqfIAVTDYlIWchF0-248" source="VDWaJJk8PZqv5Mdo3ZJA-148" target="VDWaJJk8PZqv5Mdo3ZJA-159" edge="1">
          <mxGeometry relative="1" as="geometry">
            <mxPoint x="2345" y="174.5" as="targetPoint" />
          </mxGeometry>
        </mxCell>
        <mxCell id="VDWaJJk8PZqv5Mdo3ZJA-158" value="NO" style="edgeLabel;html=1;align=center;verticalAlign=middle;resizable=0;points=[];" parent="VDWaJJk8PZqv5Mdo3ZJA-157" vertex="1" connectable="0">
          <mxGeometry x="0.1034" y="5" relative="1" as="geometry">
            <mxPoint as="offset" />
          </mxGeometry>
        </mxCell>
        <mxCell id="645c-EQ36qVEh3R8y48j-2" value="" style="edgeStyle=orthogonalEdgeStyle;rounded=0;orthogonalLoop=1;jettySize=auto;html=1;" parent="Gzy3aqfIAVTDYlIWchF0-248" source="VDWaJJk8PZqv5Mdo3ZJA-159" target="645c-EQ36qVEh3R8y48j-1" edge="1">
          <mxGeometry relative="1" as="geometry" />
        </mxCell>
        <mxCell id="VDWaJJk8PZqv5Mdo3ZJA-159" value="" style="points=[[0.25,0.25,0],[0.5,0,0],[0.75,0.25,0],[1,0.5,0],[0.75,0.75,0],[0.5,1,0],[0.25,0.75,0],[0,0.5,0]];shape=mxgraph.bpmn.gateway2;html=1;verticalLabelPosition=bottom;labelBackgroundColor=#ffffff;verticalAlign=top;align=center;perimeter=rhombusPerimeter;outlineConnect=0;outline=none;symbol=none;gwType=exclusive;" parent="Gzy3aqfIAVTDYlIWchF0-248" vertex="1">
          <mxGeometry x="2320" y="130" width="50" height="50" as="geometry" />
        </mxCell>
        <mxCell id="VDWaJJk8PZqv5Mdo3ZJA-160" value="&lt;span style=&quot;text-wrap: wrap;&quot;&gt;La TDD cuenta&amp;nbsp;&lt;/span&gt;&lt;div&gt;&lt;span style=&quot;text-wrap: wrap;&quot;&gt;con&amp;nbsp;&lt;/span&gt;&lt;div&gt;&lt;span style=&quot;text-wrap: wrap;&quot;&gt;Saldo suficiente?&lt;/span&gt;&lt;/div&gt;&lt;/div&gt;" style="text;html=1;align=center;verticalAlign=middle;resizable=0;points=[];autosize=1;strokeColor=none;fillColor=none;" parent="Gzy3aqfIAVTDYlIWchF0-248" vertex="1">
          <mxGeometry x="2210" y="120" width="110" height="60" as="geometry" />
        </mxCell>
        <mxCell id="VDWaJJk8PZqv5Mdo3ZJA-186" value="" style="points=[[0.25,0.25,0],[0.5,0,0],[0.75,0.25,0],[1,0.5,0],[0.75,0.75,0],[0.5,1,0],[0.25,0.75,0],[0,0.5,0]];shape=mxgraph.bpmn.gateway2;html=1;verticalLabelPosition=bottom;labelBackgroundColor=#ffffff;verticalAlign=top;align=center;perimeter=rhombusPerimeter;outlineConnect=0;outline=none;symbol=none;" parent="Gzy3aqfIAVTDYlIWchF0-248" vertex="1">
          <mxGeometry x="4275" y="368" width="50" height="50" as="geometry" />
        </mxCell>
        <mxCell id="VDWaJJk8PZqv5Mdo3ZJA-189" style="edgeStyle=orthogonalEdgeStyle;rounded=0;orthogonalLoop=1;jettySize=auto;html=1;entryX=0;entryY=0.5;entryDx=0;entryDy=0;entryPerimeter=0;" parent="Gzy3aqfIAVTDYlIWchF0-248" source="VDWaJJk8PZqv5Mdo3ZJA-186" edge="1">
          <mxGeometry relative="1" as="geometry">
            <mxPoint x="4610" y="391.99999999999955" as="targetPoint" />
          </mxGeometry>
        </mxCell>
        <mxCell id="VDWaJJk8PZqv5Mdo3ZJA-196" value="" style="points=[[0.145,0.145,0],[0.5,0,0],[0.855,0.145,0],[1,0.5,0],[0.855,0.855,0],[0.5,1,0],[0.145,0.855,0],[0,0.5,0]];shape=mxgraph.bpmn.event;html=1;verticalLabelPosition=bottom;labelBackgroundColor=#ffffff;verticalAlign=top;align=center;perimeter=ellipsePerimeter;outlineConnect=0;aspect=fixed;outline=end;symbol=message;" parent="Gzy3aqfIAVTDYlIWchF0-248" vertex="1">
          <mxGeometry x="4610" y="368" width="50" height="50" as="geometry" />
        </mxCell>
        <mxCell id="VDWaJJk8PZqv5Mdo3ZJA-191" value="&lt;span style=&quot;text-wrap: wrap;&quot;&gt;Envio de Correo Eléctronico con datos de la compra&lt;/span&gt;" style="text;html=1;align=center;verticalAlign=middle;resizable=0;points=[];autosize=1;strokeColor=none;fillColor=none;" parent="Gzy3aqfIAVTDYlIWchF0-248" vertex="1">
          <mxGeometry x="4485" y="297" width="300" height="30" as="geometry" />
        </mxCell>
        <mxCell id="645c-EQ36qVEh3R8y48j-1" value="" style="ellipse;whiteSpace=wrap;html=1;verticalAlign=top;labelBackgroundColor=#ffffff;" parent="Gzy3aqfIAVTDYlIWchF0-248" vertex="1">
          <mxGeometry x="2435" y="132" width="45" height="45" as="geometry" />
        </mxCell>
        <mxCell id="645c-EQ36qVEh3R8y48j-4" value="" style="ellipse;html=1;shape=endState;fillColor=#000000;strokeColor=#ff0000;" parent="Gzy3aqfIAVTDYlIWchF0-248" vertex="1">
          <mxGeometry x="2190" y="393" width="30" height="30" as="geometry" />
        </mxCell>
        <mxCell id="645c-EQ36qVEh3R8y48j-10" value="A" style="text;html=1;align=center;verticalAlign=middle;resizable=0;points=[];autosize=1;strokeColor=none;fillColor=none;" parent="Gzy3aqfIAVTDYlIWchF0-248" vertex="1">
          <mxGeometry x="2442.5" y="140" width="30" height="30" as="geometry" />
        </mxCell>
        <mxCell id="XaqyNX95goq2xA5rS7w--1" value="" style="ellipse;html=1;shape=endState;fillColor=#000000;strokeColor=#ff0000;" vertex="1" parent="Gzy3aqfIAVTDYlIWchF0-248">
          <mxGeometry x="2949" y="630" width="30" height="30" as="geometry" />
        </mxCell>
        <mxCell id="Gzy3aqfIAVTDYlIWchF0-275" value="" style="swimlane;html=1;startSize=20;fontStyle=0;collapsible=0;horizontal=0;swimlaneLine=0;fillColor=none;whiteSpace=wrap;" parent="1" vertex="1">
          <mxGeometry x="10" y="-170" width="4780" height="70" as="geometry" />
        </mxCell>
        <mxCell id="Gzy3aqfIAVTDYlIWchF0-277" value="&lt;font style=&quot;font-size: 37px;&quot;&gt;&lt;b&gt;Comercio En Línea&lt;/b&gt;&lt;/font&gt;" style="text;html=1;align=center;verticalAlign=middle;resizable=0;points=[];autosize=1;strokeColor=none;fillColor=none;" parent="Gzy3aqfIAVTDYlIWchF0-275" vertex="1">
          <mxGeometry x="1210" y="10" width="360" height="60" as="geometry" />
        </mxCell>
        <mxCell id="VDWaJJk8PZqv5Mdo3ZJA-10" style="edgeStyle=orthogonalEdgeStyle;rounded=0;orthogonalLoop=1;jettySize=auto;html=1;entryX=0;entryY=0.5;entryDx=0;entryDy=0;entryPerimeter=0;" parent="1" source="Gzy3aqfIAVTDYlIWchF0-103" target="Gzy3aqfIAVTDYlIWchF0-101" edge="1">
          <mxGeometry relative="1" as="geometry">
            <mxPoint x="1870" y="574" as="targetPoint" />
          </mxGeometry>
        </mxCell>
        <mxCell id="Gzy3aqfIAVTDYlIWchF0-101" value="&lt;font style=&quot;font-size: 12px;&quot;&gt;Ingresa datos del método de pago.&lt;/font&gt;&lt;div style=&quot;&quot;&gt;&lt;br&gt;&lt;/div&gt;" style="points=[[0.25,0,0],[0.5,0,0],[0.75,0,0],[1,0.25,0],[1,0.5,0],[1,0.75,0],[0.75,1,0],[0.5,1,0],[0.25,1,0],[0,0.75,0],[0,0.5,0],[0,0.25,0]];shape=mxgraph.bpmn.task;whiteSpace=wrap;rectStyle=rounded;size=10;html=1;container=1;expand=0;collapsible=0;taskMarker=abstract;align=center;" parent="1" vertex="1">
          <mxGeometry x="1990" y="260" width="120" height="80" as="geometry" />
        </mxCell>
        <mxCell id="Gzy3aqfIAVTDYlIWchF0-102" value="&lt;span style=&quot;font-size: 11px;&quot;&gt;- Nombre:&lt;/span&gt;&lt;div style=&quot;font-size: 11px;&quot;&gt;- Num. Tarjeta&lt;/div&gt;&lt;div style=&quot;font-size: 11px;&quot;&gt;- Fecha Vencimiento&lt;/div&gt;&lt;div style=&quot;font-size: 11px;&quot;&gt;- CVV&lt;/div&gt;&lt;div style=&quot;font-size: 11px;&quot;&gt;- Tipo de tarjeta TDD o TDC&lt;/div&gt;" style="text;html=1;align=left;verticalAlign=middle;whiteSpace=wrap;rounded=0;" parent="1" vertex="1">
          <mxGeometry x="1950" y="204" width="150" height="30" as="geometry" />
        </mxCell>
        <mxCell id="VDWaJJk8PZqv5Mdo3ZJA-21" style="edgeStyle=orthogonalEdgeStyle;rounded=0;orthogonalLoop=1;jettySize=auto;html=1;entryX=0.5;entryY=0;entryDx=0;entryDy=0;entryPerimeter=0;exitX=1;exitY=0.5;exitDx=0;exitDy=0;exitPerimeter=0;" parent="1" source="Gzy3aqfIAVTDYlIWchF0-176" target="VDWaJJk8PZqv5Mdo3ZJA-20" edge="1">
          <mxGeometry relative="1" as="geometry" />
        </mxCell>
        <mxCell id="VDWaJJk8PZqv5Mdo3ZJA-28" style="edgeStyle=orthogonalEdgeStyle;rounded=0;orthogonalLoop=1;jettySize=auto;html=1;entryX=0.5;entryY=1;entryDx=0;entryDy=0;entryPerimeter=0;" parent="1" source="Gzy3aqfIAVTDYlIWchF0-174" target="Gzy3aqfIAVTDYlIWchF0-176" edge="1">
          <mxGeometry relative="1" as="geometry" />
        </mxCell>
        <mxCell id="VDWaJJk8PZqv5Mdo3ZJA-37" style="edgeStyle=orthogonalEdgeStyle;rounded=0;orthogonalLoop=1;jettySize=auto;html=1;entryX=0.446;entryY=0.979;entryDx=0;entryDy=0;entryPerimeter=0;" parent="1" source="VDWaJJk8PZqv5Mdo3ZJA-30" target="Gzy3aqfIAVTDYlIWchF0-101" edge="1">
          <mxGeometry relative="1" as="geometry">
            <mxPoint x="1990" y="570" as="targetPoint" />
          </mxGeometry>
        </mxCell>
        <mxCell id="VDWaJJk8PZqv5Mdo3ZJA-51" value="Cliente" style="swimlane;startSize=20;horizontal=0;html=1;whiteSpace=wrap;movable=1;resizable=1;rotatable=1;deletable=1;editable=1;locked=0;connectable=1;" parent="1" vertex="1">
          <mxGeometry x="10" y="-100" width="4780" height="590" as="geometry" />
        </mxCell>
        <mxCell id="Gzy3aqfIAVTDYlIWchF0-176" value="&lt;div style=&quot;&quot;&gt;Selecciona plazo de meses sin intereses&lt;/div&gt;" style="points=[[0.25,0,0],[0.5,0,0],[0.75,0,0],[1,0.25,0],[1,0.5,0],[1,0.75,0],[0.75,1,0],[0.5,1,0],[0.25,1,0],[0,0.75,0],[0,0.5,0],[0,0.25,0]];shape=mxgraph.bpmn.task;whiteSpace=wrap;rectStyle=rounded;size=10;html=1;container=1;expand=0;collapsible=0;taskMarker=abstract;align=center;" parent="VDWaJJk8PZqv5Mdo3ZJA-51" vertex="1">
          <mxGeometry x="2684" y="350" width="120" height="80" as="geometry" />
        </mxCell>
        <mxCell id="Gzy3aqfIAVTDYlIWchF0-177" value="Plazos disponibles:&lt;div&gt;0,3, 6, 9 y 12&lt;/div&gt;" style="text;html=1;align=center;verticalAlign=middle;whiteSpace=wrap;rounded=0;" parent="VDWaJJk8PZqv5Mdo3ZJA-51" vertex="1">
          <mxGeometry x="2694" y="300" width="110" height="30" as="geometry" />
        </mxCell>
        <mxCell id="VDWaJJk8PZqv5Mdo3ZJA-80" value="&lt;div style=&quot;&quot;&gt;Cliente Ingresa OTP&lt;/div&gt;" style="points=[[0.25,0,0],[0.5,0,0],[0.75,0,0],[1,0.25,0],[1,0.5,0],[1,0.75,0],[0.75,1,0],[0.5,1,0],[0.25,1,0],[0,0.75,0],[0,0.5,0],[0,0.25,0]];shape=mxgraph.bpmn.task;whiteSpace=wrap;rectStyle=rounded;size=10;html=1;container=1;expand=0;collapsible=0;taskMarker=abstract;align=center;" parent="VDWaJJk8PZqv5Mdo3ZJA-51" vertex="1">
          <mxGeometry x="3914" y="335" width="120" height="80" as="geometry" />
        </mxCell>
        <mxCell id="VDWaJJk8PZqv5Mdo3ZJA-85" style="edgeStyle=orthogonalEdgeStyle;rounded=0;orthogonalLoop=1;jettySize=auto;html=1;entryX=0;entryY=0.5;entryDx=0;entryDy=0;entryPerimeter=0;" parent="VDWaJJk8PZqv5Mdo3ZJA-51" source="VDWaJJk8PZqv5Mdo3ZJA-81" target="VDWaJJk8PZqv5Mdo3ZJA-80" edge="1">
          <mxGeometry relative="1" as="geometry">
            <mxPoint x="3944" y="375" as="targetPoint" />
          </mxGeometry>
        </mxCell>
        <mxCell id="VDWaJJk8PZqv5Mdo3ZJA-86" value="SI" style="edgeLabel;html=1;align=center;verticalAlign=middle;resizable=0;points=[];" parent="VDWaJJk8PZqv5Mdo3ZJA-85" vertex="1" connectable="0">
          <mxGeometry x="0.2137" relative="1" as="geometry">
            <mxPoint as="offset" />
          </mxGeometry>
        </mxCell>
        <mxCell id="VDWaJJk8PZqv5Mdo3ZJA-81" value="" style="points=[[0.25,0.25,0],[0.5,0,0],[0.75,0.25,0],[1,0.5,0],[0.75,0.75,0],[0.5,1,0],[0.25,0.75,0],[0,0.5,0]];shape=mxgraph.bpmn.gateway2;html=1;verticalLabelPosition=bottom;labelBackgroundColor=#ffffff;verticalAlign=top;align=center;perimeter=rhombusPerimeter;outlineConnect=0;outline=none;symbol=none;gwType=exclusive;" parent="VDWaJJk8PZqv5Mdo3ZJA-51" vertex="1">
          <mxGeometry x="3694" y="350" width="50" height="50" as="geometry" />
        </mxCell>
        <mxCell id="VDWaJJk8PZqv5Mdo3ZJA-82" value="¿Cliente Recibio&lt;div&gt;&amp;nbsp;OTP?&lt;/div&gt;" style="text;html=1;align=center;verticalAlign=middle;resizable=0;points=[];autosize=1;strokeColor=none;fillColor=none;" parent="VDWaJJk8PZqv5Mdo3ZJA-51" vertex="1">
          <mxGeometry x="3664" y="295" width="110" height="40" as="geometry" />
        </mxCell>
        <mxCell id="VDWaJJk8PZqv5Mdo3ZJA-145" value="&lt;div style=&quot;&quot;&gt;Compra realizada con Exito&lt;/div&gt;" style="points=[[0.25,0,0],[0.5,0,0],[0.75,0,0],[1,0.25,0],[1,0.5,0],[1,0.75,0],[0.75,1,0],[0.5,1,0],[0.25,1,0],[0,0.75,0],[0,0.5,0],[0,0.25,0]];shape=mxgraph.bpmn.task;whiteSpace=wrap;rectStyle=rounded;size=10;html=1;container=1;expand=0;collapsible=0;taskMarker=abstract;align=center;" parent="VDWaJJk8PZqv5Mdo3ZJA-51" vertex="1">
          <mxGeometry x="4241" y="335" width="120" height="80" as="geometry" />
        </mxCell>
        <mxCell id="VDWaJJk8PZqv5Mdo3ZJA-164" value="Alerta de Saldo insuficiente, dar opción de ajustar la compra para continuar" style="points=[[0.25,0,0],[0.5,0,0],[0.75,0,0],[1,0.25,0],[1,0.5,0],[1,0.75,0],[0.75,1,0],[0.5,1,0],[0.25,1,0],[0,0.75,0],[0,0.5,0],[0,0.25,0]];shape=mxgraph.bpmn.task;whiteSpace=wrap;rectStyle=rounded;size=10;html=1;container=1;expand=0;collapsible=0;taskMarker=abstract;movable=1;resizable=1;rotatable=1;deletable=1;editable=1;locked=0;connectable=1;" parent="VDWaJJk8PZqv5Mdo3ZJA-51" vertex="1">
          <mxGeometry x="2285" y="350" width="120" height="80" as="geometry" />
        </mxCell>
        <mxCell id="VDWaJJk8PZqv5Mdo3ZJA-176" style="edgeStyle=orthogonalEdgeStyle;rounded=0;orthogonalLoop=1;jettySize=auto;html=1;strokeColor=#EC0000;" parent="VDWaJJk8PZqv5Mdo3ZJA-51" source="VDWaJJk8PZqv5Mdo3ZJA-170" edge="1">
          <mxGeometry relative="1" as="geometry">
            <mxPoint x="2440" y="195" as="targetPoint" />
          </mxGeometry>
        </mxCell>
        <mxCell id="VDWaJJk8PZqv5Mdo3ZJA-177" value="NO" style="edgeLabel;html=1;align=center;verticalAlign=middle;resizable=0;points=[];" parent="VDWaJJk8PZqv5Mdo3ZJA-176" vertex="1" connectable="0">
          <mxGeometry x="-0.2113" y="-6" relative="1" as="geometry">
            <mxPoint as="offset" />
          </mxGeometry>
        </mxCell>
        <mxCell id="VDWaJJk8PZqv5Mdo3ZJA-170" value="" style="points=[[0.25,0.25,0],[0.5,0,0],[0.75,0.25,0],[1,0.5,0],[0.75,0.75,0],[0.5,1,0],[0.25,0.75,0],[0,0.5,0]];shape=mxgraph.bpmn.gateway2;html=1;verticalLabelPosition=bottom;labelBackgroundColor=#ffffff;verticalAlign=top;align=center;perimeter=rhombusPerimeter;outlineConnect=0;outline=none;symbol=none;gwType=exclusive;" parent="VDWaJJk8PZqv5Mdo3ZJA-51" vertex="1">
          <mxGeometry x="2319" y="170" width="50" height="50" as="geometry" />
        </mxCell>
        <mxCell id="VDWaJJk8PZqv5Mdo3ZJA-171" style="edgeStyle=orthogonalEdgeStyle;rounded=0;orthogonalLoop=1;jettySize=auto;html=1;entryX=0.5;entryY=1;entryDx=0;entryDy=0;entryPerimeter=0;" parent="VDWaJJk8PZqv5Mdo3ZJA-51" source="VDWaJJk8PZqv5Mdo3ZJA-164" target="VDWaJJk8PZqv5Mdo3ZJA-170" edge="1">
          <mxGeometry relative="1" as="geometry" />
        </mxCell>
        <mxCell id="VDWaJJk8PZqv5Mdo3ZJA-178" value="Fin de&amp;nbsp;&lt;div&gt;Operación&lt;/div&gt;" style="text;html=1;align=center;verticalAlign=middle;resizable=0;points=[];autosize=1;strokeColor=none;fillColor=none;" parent="VDWaJJk8PZqv5Mdo3ZJA-51" vertex="1">
          <mxGeometry x="2416" y="220" width="80" height="40" as="geometry" />
        </mxCell>
        <mxCell id="645c-EQ36qVEh3R8y48j-5" value="" style="ellipse;html=1;shape=endState;fillColor=#000000;strokeColor=#ff0000;" parent="VDWaJJk8PZqv5Mdo3ZJA-51" vertex="1">
          <mxGeometry x="2441" y="180" width="30" height="30" as="geometry" />
        </mxCell>
        <mxCell id="VDWaJJk8PZqv5Mdo3ZJA-76" value="Envia SMS de OTP al Número celular del cliente" style="points=[[0.25,0,0],[0.5,0,0],[0.75,0,0],[1,0.25,0],[1,0.5,0],[1,0.75,0],[0.75,1,0],[0.5,1,0],[0.25,1,0],[0,0.75,0],[0,0.5,0],[0,0.25,0]];shape=mxgraph.bpmn.task;whiteSpace=wrap;rectStyle=rounded;size=10;html=1;container=1;expand=0;collapsible=0;taskMarker=abstract;" parent="1" vertex="1">
          <mxGeometry x="3224" y="1474" width="120" height="80" as="geometry" />
        </mxCell>
        <mxCell id="VDWaJJk8PZqv5Mdo3ZJA-78" value="Sistema Solicita verificación de OTP" style="points=[[0.25,0,0],[0.5,0,0],[0.75,0,0],[1,0.25,0],[1,0.5,0],[1,0.75,0],[0.75,1,0],[0.5,1,0],[0.25,1,0],[0,0.75,0],[0,0.5,0],[0,0.25,0]];shape=mxgraph.bpmn.task;whiteSpace=wrap;rectStyle=rounded;size=10;html=1;container=1;expand=0;collapsible=0;taskMarker=abstract;" parent="1" vertex="1">
          <mxGeometry x="3464" y="1474" width="120" height="80" as="geometry" />
        </mxCell>
        <mxCell id="VDWaJJk8PZqv5Mdo3ZJA-79" style="edgeStyle=orthogonalEdgeStyle;rounded=0;orthogonalLoop=1;jettySize=auto;html=1;entryX=0;entryY=0.5;entryDx=0;entryDy=0;entryPerimeter=0;" parent="1" source="VDWaJJk8PZqv5Mdo3ZJA-76" target="VDWaJJk8PZqv5Mdo3ZJA-78" edge="1">
          <mxGeometry relative="1" as="geometry" />
        </mxCell>
        <mxCell id="VDWaJJk8PZqv5Mdo3ZJA-77" style="edgeStyle=orthogonalEdgeStyle;rounded=0;orthogonalLoop=1;jettySize=auto;html=1;entryX=0;entryY=0.5;entryDx=0;entryDy=0;entryPerimeter=0;" parent="1" source="VDWaJJk8PZqv5Mdo3ZJA-22" target="VDWaJJk8PZqv5Mdo3ZJA-76" edge="1">
          <mxGeometry relative="1" as="geometry" />
        </mxCell>
        <mxCell id="VDWaJJk8PZqv5Mdo3ZJA-84" style="edgeStyle=orthogonalEdgeStyle;rounded=0;orthogonalLoop=1;jettySize=auto;html=1;entryX=0;entryY=0.5;entryDx=0;entryDy=0;entryPerimeter=0;" parent="1" source="VDWaJJk8PZqv5Mdo3ZJA-78" target="VDWaJJk8PZqv5Mdo3ZJA-81" edge="1">
          <mxGeometry relative="1" as="geometry" />
        </mxCell>
        <mxCell id="VDWaJJk8PZqv5Mdo3ZJA-89" value="" style="edgeStyle=orthogonalEdgeStyle;rounded=0;orthogonalLoop=1;jettySize=auto;html=1;exitX=0.5;exitY=1;exitDx=0;exitDy=0;exitPerimeter=0;strokeColor=#FF0000;" parent="1" source="VDWaJJk8PZqv5Mdo3ZJA-81" edge="1">
          <mxGeometry relative="1" as="geometry">
            <mxPoint x="3729" y="350" as="sourcePoint" />
            <mxPoint x="3729" y="1822" as="targetPoint" />
          </mxGeometry>
        </mxCell>
        <mxCell id="VDWaJJk8PZqv5Mdo3ZJA-112" value="NO" style="edgeLabel;html=1;align=center;verticalAlign=middle;resizable=0;points=[];" parent="VDWaJJk8PZqv5Mdo3ZJA-89" vertex="1" connectable="0">
          <mxGeometry x="-0.9023" y="-3" relative="1" as="geometry">
            <mxPoint y="1" as="offset" />
          </mxGeometry>
        </mxCell>
        <mxCell id="VDWaJJk8PZqv5Mdo3ZJA-91" value="OTP" style="swimlane;startSize=20;horizontal=0;html=1;whiteSpace=wrap;movable=1;resizable=1;rotatable=1;deletable=1;editable=1;locked=0;connectable=1;" parent="1" vertex="1">
          <mxGeometry x="10" y="1280" width="4780" height="690" as="geometry" />
        </mxCell>
        <mxCell id="VDWaJJk8PZqv5Mdo3ZJA-117" value="" style="edgeStyle=orthogonalEdgeStyle;rounded=0;orthogonalLoop=1;jettySize=auto;html=1;entryX=0.5;entryY=0;entryDx=0;entryDy=0;strokeColor=#EC0000;" parent="VDWaJJk8PZqv5Mdo3ZJA-91" source="VDWaJJk8PZqv5Mdo3ZJA-113" edge="1">
          <mxGeometry relative="1" as="geometry">
            <mxPoint x="3974" y="542" as="targetPoint" />
          </mxGeometry>
        </mxCell>
        <mxCell id="VDWaJJk8PZqv5Mdo3ZJA-120" value="NO" style="edgeLabel;html=1;align=center;verticalAlign=middle;resizable=0;points=[];" parent="VDWaJJk8PZqv5Mdo3ZJA-117" vertex="1" connectable="0">
          <mxGeometry x="-0.1266" relative="1" as="geometry">
            <mxPoint as="offset" />
          </mxGeometry>
        </mxCell>
        <mxCell id="VDWaJJk8PZqv5Mdo3ZJA-113" value="" style="points=[[0.25,0.25,0],[0.5,0,0],[0.75,0.25,0],[1,0.5,0],[0.75,0.75,0],[0.5,1,0],[0.25,0.75,0],[0,0.5,0]];shape=mxgraph.bpmn.gateway2;html=1;verticalLabelPosition=bottom;labelBackgroundColor=#ffffff;verticalAlign=top;align=center;perimeter=rhombusPerimeter;outlineConnect=0;outline=none;symbol=none;gwType=exclusive;" parent="VDWaJJk8PZqv5Mdo3ZJA-91" vertex="1">
          <mxGeometry x="3949" y="363" width="50" height="50" as="geometry" />
        </mxCell>
        <mxCell id="VDWaJJk8PZqv5Mdo3ZJA-115" value="Tiene &amp;gt;3 intentos" style="text;html=1;align=center;verticalAlign=middle;resizable=0;points=[];autosize=1;strokeColor=none;fillColor=none;" parent="VDWaJJk8PZqv5Mdo3ZJA-91" vertex="1">
          <mxGeometry x="3814" y="373" width="120" height="30" as="geometry" />
        </mxCell>
        <mxCell id="VDWaJJk8PZqv5Mdo3ZJA-119" value="Fin de&amp;nbsp;&lt;div&gt;Operación&lt;/div&gt;" style="text;html=1;align=center;verticalAlign=middle;resizable=0;points=[];autosize=1;strokeColor=none;fillColor=none;" parent="VDWaJJk8PZqv5Mdo3ZJA-91" vertex="1">
          <mxGeometry x="3934" y="572" width="80" height="40" as="geometry" />
        </mxCell>
        <mxCell id="VDWaJJk8PZqv5Mdo3ZJA-90" value="Fin de&amp;nbsp;&lt;div&gt;Operación&lt;/div&gt;" style="text;html=1;align=center;verticalAlign=middle;resizable=0;points=[];autosize=1;strokeColor=none;fillColor=none;" parent="VDWaJJk8PZqv5Mdo3ZJA-91" vertex="1">
          <mxGeometry x="3680" y="572" width="80" height="40" as="geometry" />
        </mxCell>
        <mxCell id="645c-EQ36qVEh3R8y48j-6" value="" style="ellipse;html=1;shape=endState;fillColor=#000000;strokeColor=#ff0000;" parent="VDWaJJk8PZqv5Mdo3ZJA-91" vertex="1">
          <mxGeometry x="3705" y="542" width="30" height="30" as="geometry" />
        </mxCell>
        <mxCell id="645c-EQ36qVEh3R8y48j-7" value="" style="ellipse;html=1;shape=endState;fillColor=#000000;strokeColor=#ff0000;" parent="VDWaJJk8PZqv5Mdo3ZJA-91" vertex="1">
          <mxGeometry x="3960" y="542" width="30" height="30" as="geometry" />
        </mxCell>
        <mxCell id="VDWaJJk8PZqv5Mdo3ZJA-135" style="edgeStyle=orthogonalEdgeStyle;rounded=0;orthogonalLoop=1;jettySize=auto;html=1;entryX=0.5;entryY=0;entryDx=0;entryDy=0;entryPerimeter=0;" parent="1" source="VDWaJJk8PZqv5Mdo3ZJA-80" target="VDWaJJk8PZqv5Mdo3ZJA-113" edge="1">
          <mxGeometry relative="1" as="geometry" />
        </mxCell>
        <mxCell id="VDWaJJk8PZqv5Mdo3ZJA-137" value="" style="edgeStyle=orthogonalEdgeStyle;rounded=0;orthogonalLoop=1;jettySize=auto;html=1;entryX=0;entryY=0.5;entryDx=0;entryDy=0;entryPerimeter=0;" parent="1" source="Gzy3aqfIAVTDYlIWchF0-101" target="VDWaJJk8PZqv5Mdo3ZJA-139" edge="1">
          <mxGeometry relative="1" as="geometry">
            <mxPoint x="2110" y="300" as="sourcePoint" />
            <mxPoint x="2150" y="600" as="targetPoint" />
          </mxGeometry>
        </mxCell>
        <mxCell id="VDWaJJk8PZqv5Mdo3ZJA-165" style="edgeStyle=orthogonalEdgeStyle;rounded=0;orthogonalLoop=1;jettySize=auto;html=1;entryX=0.5;entryY=1;entryDx=0;entryDy=0;entryPerimeter=0;strokeColor=#EC0000;" parent="1" source="VDWaJJk8PZqv5Mdo3ZJA-159" target="VDWaJJk8PZqv5Mdo3ZJA-164" edge="1">
          <mxGeometry relative="1" as="geometry" />
        </mxCell>
        <mxCell id="VDWaJJk8PZqv5Mdo3ZJA-166" value="NO" style="edgeLabel;html=1;align=center;verticalAlign=middle;resizable=0;points=[];" parent="VDWaJJk8PZqv5Mdo3ZJA-165" vertex="1" connectable="0">
          <mxGeometry x="-0.3086" y="-2" relative="1" as="geometry">
            <mxPoint as="offset" />
          </mxGeometry>
        </mxCell>
        <mxCell id="VDWaJJk8PZqv5Mdo3ZJA-172" style="edgeStyle=orthogonalEdgeStyle;rounded=0;orthogonalLoop=1;jettySize=auto;html=1;entryX=0.5;entryY=0;entryDx=0;entryDy=0;entryPerimeter=0;" parent="1" source="VDWaJJk8PZqv5Mdo3ZJA-170" target="Gzy3aqfIAVTDYlIWchF0-95" edge="1">
          <mxGeometry relative="1" as="geometry" />
        </mxCell>
        <mxCell id="VDWaJJk8PZqv5Mdo3ZJA-174" value="SI" style="edgeLabel;html=1;align=center;verticalAlign=middle;resizable=0;points=[];" parent="VDWaJJk8PZqv5Mdo3ZJA-172" vertex="1" connectable="0">
          <mxGeometry x="-0.9276" relative="1" as="geometry">
            <mxPoint as="offset" />
          </mxGeometry>
        </mxCell>
        <mxCell id="VDWaJJk8PZqv5Mdo3ZJA-173" value="¿Cliente desea&amp;nbsp;&lt;div&gt;ajustar la compra?&lt;/div&gt;" style="text;html=1;align=center;verticalAlign=middle;resizable=0;points=[];autosize=1;strokeColor=none;fillColor=none;" parent="1" vertex="1">
          <mxGeometry x="2230" y="33" width="120" height="40" as="geometry" />
        </mxCell>
        <mxCell id="VDWaJJk8PZqv5Mdo3ZJA-182" value="" style="edgeStyle=orthogonalEdgeStyle;rounded=0;orthogonalLoop=1;jettySize=auto;html=1;entryX=0.5;entryY=1;entryDx=0;entryDy=0;entryPerimeter=0;" parent="1" source="VDWaJJk8PZqv5Mdo3ZJA-113" target="VDWaJJk8PZqv5Mdo3ZJA-186" edge="1">
          <mxGeometry relative="1" as="geometry">
            <mxPoint x="4009" y="1668" as="sourcePoint" />
            <mxPoint x="4320" y="930" as="targetPoint" />
          </mxGeometry>
        </mxCell>
        <mxCell id="VDWaJJk8PZqv5Mdo3ZJA-183" value="SI" style="edgeLabel;html=1;align=center;verticalAlign=middle;resizable=0;points=[];" parent="VDWaJJk8PZqv5Mdo3ZJA-182" vertex="1" connectable="0">
          <mxGeometry x="-0.5286" y="-4" relative="1" as="geometry">
            <mxPoint as="offset" />
          </mxGeometry>
        </mxCell>
        <mxCell id="VDWaJJk8PZqv5Mdo3ZJA-190" style="edgeStyle=orthogonalEdgeStyle;rounded=0;orthogonalLoop=1;jettySize=auto;html=1;entryX=0.5;entryY=1;entryDx=0;entryDy=0;entryPerimeter=0;" parent="1" source="VDWaJJk8PZqv5Mdo3ZJA-186" target="VDWaJJk8PZqv5Mdo3ZJA-145" edge="1">
          <mxGeometry relative="1" as="geometry" />
        </mxCell>
        <mxCell id="645c-EQ36qVEh3R8y48j-11" value="" style="ellipse;whiteSpace=wrap;html=1;verticalAlign=top;labelBackgroundColor=#ffffff;" parent="1" vertex="1">
          <mxGeometry x="3133" y="746" width="45" height="45" as="geometry" />
        </mxCell>
        <mxCell id="645c-EQ36qVEh3R8y48j-12" value="A" style="text;html=1;align=center;verticalAlign=middle;resizable=0;points=[];autosize=1;strokeColor=none;fillColor=none;" parent="1" vertex="1">
          <mxGeometry x="3140.5" y="754" width="30" height="30" as="geometry" />
        </mxCell>
      </root>
    </mxGraphModel>
  </diagram>
</mxfile>
